<?xml version="1.0" encoding="UTF-8" standalone="no"?>
<svg
   preserveAspectRatio="none"
   id="visual"
   viewBox="0 0 900 600"
   width="900"
   height="600"
   version="1.1"
   sodipodi:docname="layered-waves-.svg"
   inkscape:version="1.2.2 (b0a8486541, 2022-12-01)"
   xmlns:inkscape="http://www.inkscape.org/namespaces/inkscape"
   xmlns:sodipodi="http://sodipodi.sourceforge.net/DTD/sodipodi-0.dtd"
   xmlns="http://www.w3.org/2000/svg"
   xmlns:svg="http://www.w3.org/2000/svg">
  <defs
     id="defs15" />
  <sodipodi:namedview
     id="namedview13"
     pagecolor="#ffffff"
     bordercolor="#000000"
     borderopacity="0.25"
     inkscape:showpageshadow="2"
     inkscape:pageopacity="0.0"
     inkscape:pagecheckerboard="0"
     inkscape:deskcolor="#d1d1d1"
     showgrid="false"
     inkscape:zoom="1.2383333"
     inkscape:cx="407.40242"
     inkscape:cy="270.12113"
     inkscape:window-width="1900"
     inkscape:window-height="988"
     inkscape:window-x="10"
     inkscape:window-y="54"
     inkscape:window-maximized="1"
     inkscape:current-layer="visual" />
  <path
     d="M0 235L12.5 241.5C25 248 50 261 75 267C100 273 125 272 150 264.2C175 256.3 200 241.7 225 245.2C250 248.7 275 270.3 300 283.5C325 296.7 350 301.3 375 297C400 292.7 425 279.3 450 264C475 248.7 500 231.3 525 228C550 224.7 575 235.3 600 248.2C625 261 650 276 675 276.3C700 276.7 725 262.3 750 254C775 245.7 800 243.3 825 248.2C850 253 875 265 887.5 271L900 277L900 601L887.5 601C875 601 850 601 825 601C800 601 775 601 750 601C725 601 700 601 675 601C650 601 625 601 600 601C575 601 550 601 525 601C500 601 475 601 450 601C425 601 400 601 375 601C350 601 325 601 300 601C275 601 250 601 225 601C200 601 175 601 150 601C125 601 100 601 75 601C50 601 25 601 12.5 601L0 601Z"
     fill="#7dd4ff"
     id="path4" />
  <path
     d="M0 346L12.5 348.8C25 351.7 50 357.3 75 356.5C100 355.7 125 348.3 150 338.5C175 328.7 200 316.3 225 319.7C250 323 275 342 300 349.2C325 356.3 350 351.7 375 355.3C400 359 425 371 450 364.5C475 358 500 333 525 329C550 325 575 342 600 347.5C625 353 650 347 675 348.5C700 350 725 359 750 363.3C775 367.7 800 367.3 825 354.5C850 341.7 875 316.3 887.5 303.7L900 291L900 601L887.5 601C875 601 850 601 825 601C800 601 775 601 750 601C725 601 700 601 675 601C650 601 625 601 600 601C575 601 550 601 525 601C500 601 475 601 450 601C425 601 400 601 375 601C350 601 325 601 300 601C275 601 250 601 225 601C200 601 175 601 150 601C125 601 100 601 75 601C50 601 25 601 12.5 601L0 601Z"
     fill="#5ec7ff"
     id="path6" />
  <path
     d="M0 389L12.5 390.7C25 392.3 50 395.7 75 399.2C100 402.7 125 406.3 150 420.3C175 434.3 200 458.7 225 452.3C250 446 275 409 300 391.8C325 374.7 350 377.3 375 389.5C400 401.7 425 423.3 450 438.3C475 453.3 500 461.7 525 454.3C550 447 575 424 600 411.8C625 399.7 650 398.3 675 404.8C700 411.3 725 425.7 750 432.2C775 438.7 800 437.3 825 444.5C850 451.7 875 467.3 887.5 475.2L900 483L900 601L887.5 601C875 601 850 601 825 601C800 601 775 601 750 601C725 601 700 601 675 601C650 601 625 601 600 601C575 601 550 601 525 601C500 601 475 601 450 601C425 601 400 601 375 601C350 601 325 601 300 601C275 601 250 601 225 601C200 601 175 601 150 601C125 601 100 601 75 601C50 601 25 601 12.5 601L0 601Z"
     fill="#3cb9ff"
     id="path8" />
  <path
     d="M0 507L12.5 503.7C25 500.3 50 493.7 75 499.7C100 505.7 125 524.3 150 527.2C175 530 200 517 225 514.8C250 512.7 275 521.3 300 520.5C325 519.7 350 509.3 375 500.8C400 492.3 425 485.7 450 497C475 508.3 500 537.7 525 552.5C550 567.3 575 567.7 600 553C625 538.3 650 508.7 675 508.7C700 508.7 725 538.3 750 542.8C775 547.3 800 526.7 825 511.8C850 497 875 488 887.5 483.5L900 479L900 601L887.5 601C875 601 850 601 825 601C800 601 775 601 750 601C725 601 700 601 675 601C650 601 625 601 600 601C575 601 550 601 525 601C500 601 475 601 450 601C425 601 400 601 375 601C350 601 325 601 300 601C275 601 250 601 225 601C200 601 175 601 150 601C125 601 100 601 75 601C50 601 25 601 12.5 601L0 601Z"
     fill="#00aaff"
     id="path10" />
</svg>
