<svg preserveAspectRatio="none" id="visual" viewBox="0 0 900 600" width="900" height="600" xmlns="http://www.w3.org/2000/svg" xmlns:xlink="http://www.w3.org/1999/xlink" version="1.1"><path d="M0 347L39 347L39 323L78 323L78 294L117 294L117 335L157 335L157 310L196 310L196 309L235 309L235 296L274 296L274 342L313 342L313 360L352 360L352 336L391 336L391 260L430 260L430 274L470 274L470 292L509 292L509 280L548 280L548 296L587 296L587 352L626 352L626 253L665 253L665 271L704 271L704 360L743 360L743 352L783 352L783 281L822 281L822 288L861 288L861 260L900 260L900 331L900 601L900 601L861 601L861 601L822 601L822 601L783 601L783 601L743 601L743 601L704 601L704 601L665 601L665 601L626 601L626 601L587 601L587 601L548 601L548 601L509 601L509 601L470 601L470 601L430 601L430 601L391 601L391 601L352 601L352 601L313 601L313 601L274 601L274 601L235 601L235 601L196 601L196 601L157 601L157 601L117 601L117 601L78 601L78 601L39 601L39 601L0 601Z" fill="#7dd4ff"></path><path d="M0 384L39 384L39 337L78 337L78 344L117 344L117 373L157 373L157 416L196 416L196 422L235 422L235 319L274 319L274 395L313 395L313 387L352 387L352 381L391 381L391 389L430 389L430 372L470 372L470 353L509 353L509 423L548 423L548 418L587 418L587 393L626 393L626 401L665 401L665 407L704 407L704 426L743 426L743 387L783 387L783 320L822 320L822 397L861 397L861 358L900 358L900 390L900 601L900 601L861 601L861 601L822 601L822 601L783 601L783 601L743 601L743 601L704 601L704 601L665 601L665 601L626 601L626 601L587 601L587 601L548 601L548 601L509 601L509 601L470 601L470 601L430 601L430 601L391 601L391 601L352 601L352 601L313 601L313 601L274 601L274 601L235 601L235 601L196 601L196 601L157 601L157 601L117 601L117 601L78 601L78 601L39 601L39 601L0 601Z" fill="#5ec7ff"></path><path d="M0 463L39 463L39 461L78 461L78 437L117 437L117 413L157 413L157 441L196 441L196 456L235 456L235 451L274 451L274 481L313 481L313 452L352 452L352 472L391 472L391 422L430 422L430 410L470 410L470 473L509 473L509 440L548 440L548 418L587 418L587 421L626 421L626 409L665 409L665 406L704 406L704 430L743 430L743 475L783 475L783 429L822 429L822 469L861 469L861 458L900 458L900 409L900 601L900 601L861 601L861 601L822 601L822 601L783 601L783 601L743 601L743 601L704 601L704 601L665 601L665 601L626 601L626 601L587 601L587 601L548 601L548 601L509 601L509 601L470 601L470 601L430 601L430 601L391 601L391 601L352 601L352 601L313 601L313 601L274 601L274 601L235 601L235 601L196 601L196 601L157 601L157 601L117 601L117 601L78 601L78 601L39 601L39 601L0 601Z" fill="#3cb9ff"></path><path d="M0 498L39 498L39 532L78 532L78 500L117 500L117 477L157 477L157 489L196 489L196 510L235 510L235 547L274 547L274 521L313 521L313 535L352 535L352 555L391 555L391 538L430 538L430 540L470 540L470 532L509 532L509 517L548 517L548 555L587 555L587 489L626 489L626 501L665 501L665 532L704 532L704 550L743 550L743 549L783 549L783 542L822 542L822 540L861 540L861 513L900 513L900 541L900 601L900 601L861 601L861 601L822 601L822 601L783 601L783 601L743 601L743 601L704 601L704 601L665 601L665 601L626 601L626 601L587 601L587 601L548 601L548 601L509 601L509 601L470 601L470 601L430 601L430 601L391 601L391 601L352 601L352 601L313 601L313 601L274 601L274 601L235 601L235 601L196 601L196 601L157 601L157 601L117 601L117 601L78 601L78 601L39 601L39 601L0 601Z" fill="#00aaff"></path></svg>